<?xml version="1.0" standalone="no"?>
<!DOCTYPE svg PUBLIC "-//W3C//DTD SVG 20010904//EN"
 "http://www.w3.org/TR/2001/REC-SVG-20010904/DTD/svg10.dtd">
<svg version="1.0" xmlns="http://www.w3.org/2000/svg"
 width="409.000000pt" height="409.000000pt" viewBox="0 0 409.000000 409.000000"
 preserveAspectRatio="xMidYMid meet">
<metadata>
Created by potrace 1.14, written by Peter Selinger 2001-2017
</metadata>
<g transform="translate(0.000000,409.000000) scale(0.100000,-0.100000)"
fill="#000000" stroke="none">
<path d="M860 3799 c63 -38 122 -92 151 -138 37 -57 38 -116 5 -188 -13 -28
-22 -54 -18 -57 3 -3 0 -6 -6 -6 -7 0 -12 -5 -12 -11 0 -5 -24 -51 -54 -102
-51 -88 -106 -211 -106 -239 0 -25 -19 15 -45 96 -26 81 -33 151 -20 219 4 20
3 37 -1 37 -12 -1 -100 -115 -129 -166 -79 -141 -103 -383 -55 -568 24 -93 76
-206 126 -271 19 -26 33 -49 31 -51 -6 -6 -151 136 -172 168 -9 15 -20 26 -24
23 -9 -5 -13 -68 -15 -200 -3 -247 94 -433 299 -572 33 -22 62 -41 65 -42 3
-1 15 -4 28 -7 12 -4 22 -11 22 -16 0 -5 4 -6 10 -3 5 3 10 1 10 -5 0 -6 3 -9
8 -7 4 2 21 -2 37 -9 28 -13 27 -13 -25 -7 -30 3 -57 9 -60 12 -3 3 -29 7 -57
8 -40 2 -53 -1 -53 -12 0 -30 108 -172 173 -227 77 -63 197 -129 271 -147 101
-25 211 -6 346 57 36 17 81 34 101 37 31 6 36 4 47 -21 7 -14 15 -59 18 -98 6
-76 -13 -166 -55 -258 -11 -26 -21 -50 -21 -53 0 -3 -8 -18 -19 -33 -10 -15
-40 -61 -67 -102 -49 -75 -56 -85 -106 -143 -15 -17 -25 -33 -24 -35 2 -2 52
24 112 57 59 33 110 59 112 57 8 -9 -144 -225 -247 -351 -74 -91 -96 -115
-203 -229 -42 -44 -75 -83 -72 -85 6 -7 125 39 219 85 154 74 281 169 375 282
25 29 50 58 55 65 24 27 93 147 128 220 37 78 59 94 62 46 4 -43 18 -363 17
-381 -4 -86 101 136 143 302 35 138 39 159 50 288 4 45 11 82 16 82 15 0 39
-102 39 -164 0 -34 -4 -77 -9 -96 -6 -19 -12 -53 -15 -75 -3 -22 -8 -58 -12
-80 -5 -38 -3 -36 41 40 87 148 141 277 162 382 13 68 10 133 -11 220 -6 26 5
29 37 9 79 -51 245 -71 352 -42 186 50 393 203 478 353 26 48 23 55 -25 48
-24 -3 -50 -8 -58 -10 -8 -2 -40 -6 -70 -9 -45 -4 -50 -3 -30 5 162 69 233
113 305 187 65 68 117 154 143 239 30 93 33 113 36 233 4 125 -2 200 -16 200
-12 0 -39 -26 -33 -32 7 -7 -141 -148 -154 -148 -6 0 7 24 29 53 172 226 199
591 63 837 -23 41 -77 113 -111 149 -18 18 -24 9 -14 -20 18 -48 2 -180 -35
-276 -18 -50 -28 -54 -38 -15 -3 15 -12 41 -20 57 -7 17 -16 37 -19 45 -4 8
-12 24 -19 35 -70 117 -108 187 -123 225 -9 25 -21 50 -25 55 -4 6 -6 35 -5
66 4 79 43 134 150 208 53 37 56 41 32 41 -54 0 -182 -32 -245 -61 -61 -28
-171 -125 -171 -151 0 -6 -6 -19 -13 -27 -13 -16 -33 -70 -43 -113 -15 -69
-18 -90 -18 -163 1 -76 8 -157 18 -186 3 -8 7 -30 10 -49 3 -19 8 -46 11 -60
3 -14 7 -38 10 -55 2 -16 7 -48 10 -70 l6 -40 -20 25 c-27 32 -66 114 -82 168
-7 23 -15 42 -19 42 -4 0 -12 -21 -18 -47 -16 -71 -6 -205 23 -308 36 -125 39
-140 39 -220 -1 -159 -109 -266 -287 -282 -115 -11 -171 42 -247 237 -52 135
-92 220 -102 220 -4 0 -8 7 -8 15 0 8 -6 15 -12 16 -7 0 -2 4 10 10 39 15 84
2 146 -43 64 -46 68 -36 21 67 -19 43 -104 145 -121 145 -3 0 -21 12 -40 26
-33 26 -33 27 -16 43 69 59 103 93 99 97 -6 7 -195 -19 -238 -32 -9 -2 -33 -7
-53 -9 -47 -6 -161 -43 -203 -65 -58 -31 -121 -84 -152 -130 -37 -54 -84 -171
-74 -181 5 -5 46 1 93 11 99 23 129 24 179 9 88 -27 102 -125 36 -265 -20 -44
-83 -102 -124 -115 -121 -40 -279 57 -309 191 -9 41 -1 136 18 207 48 174 57
275 36 368 -2 11 -5 26 -5 33 -1 19 -21 14 -21 -6 0 -10 -3 -22 -7 -26 -4 -3
-8 -14 -9 -24 -5 -31 -67 -141 -76 -135 -5 3 -7 15 -4 28 3 12 8 40 11 61 3
21 12 73 20 114 22 110 25 146 25 235 0 201 -97 374 -247 441 -60 26 -180 54
-236 54 l-32 0 35 -21z m1035 -918 c-21 -41 -91 -51 -143 -22 -12 7 -11 11 8
21 36 19 71 28 113 29 l38 1 -16 -29z"/>
<path d="M1920 3703 c-144 -14 -284 -42 -402 -80 -48 -15 -58 -32 -39 -61 7
-11 24 -9 92 12 153 46 308 68 481 68 86 0 187 -5 225 -11 37 -6 82 -13 98
-15 39 -6 57 -10 130 -30 33 -9 67 -19 75 -21 8 -2 30 -8 48 -14 28 -8 33 -7
44 12 6 12 10 24 7 27 -6 9 -141 51 -209 66 -60 14 -140 29 -215 40 -40 6
-291 12 -335 7z"/>
<path d="M374 2433 c-4 -15 -9 -35 -10 -43 -2 -8 -5 -22 -7 -30 -14 -53 -17
-68 -22 -95 -14 -84 -19 -153 -19 -290 0 -137 2 -175 20 -300 11 -75 45 -200
81 -300 38 -105 129 -298 144 -303 5 -2 9 -9 9 -15 1 -33 178 -254 290 -362
70 -68 235 -195 253 -195 34 0 49 46 20 57 -18 7 -66 38 -89 58 -6 6 -31 26
-55 45 -46 37 -164 152 -214 211 -174 200 -314 490 -366 754 -28 142 -41 442
-23 515 6 26 7 311 0 317 -2 2 -7 -9 -12 -24z"/>
<path d="M3756 2319 c-7 -21 -19 -159 -19 -209 1 -25 1 -79 2 -120 3 -260 -55
-521 -169 -765 -19 -38 -38 -73 -44 -77 -6 -4 -7 -8 -2 -8 5 0 2 -8 -6 -17 -9
-10 -22 -31 -31 -48 -49 -96 -254 -329 -377 -426 -237 -188 -566 -327 -837
-353 -73 -8 -94 -14 -110 -35 -25 -32 -16 -43 30 -37 23 3 62 8 87 11 256 30
502 121 732 271 103 67 112 74 191 144 216 191 395 445 478 678 11 31 24 66
29 77 10 23 58 205 64 244 24 148 27 182 28 302 0 93 -5 181 -17 259 -3 14 -7
45 -10 69 -6 49 -12 62 -19 40z"/>
<path d="M1695 285 c-20 -16 -25 -25 -15 -26 8 0 22 -2 30 -4 64 -15 129 -25
162 -25 36 0 38 2 34 26 -6 33 -4 32 -51 38 -22 2 -60 7 -85 10 -38 5 -50 2
-75 -19z"/>
</g>
</svg>
