<?xml version="1.0" standalone="no"?>
<!DOCTYPE svg PUBLIC "-//W3C//DTD SVG 20010904//EN"
 "http://www.w3.org/TR/2001/REC-SVG-20010904/DTD/svg10.dtd">
<svg version="1.0" xmlns="http://www.w3.org/2000/svg"
 width="500.000000pt" height="500.000000pt" viewBox="0 0 500.000000 500.000000"
 preserveAspectRatio="xMidYMid meet">
<metadata>
Created by potrace 1.14, written by Peter Selinger 2001-2017
</metadata>
<g transform="translate(0.000000,500.000000) scale(0.100000,-0.100000)"
fill="#000000" stroke="none">
<path d="M222 4387 c-36 -16 -37 -49 -2 -134 17 -43 58 -145 91 -228 33 -82
66 -163 74 -180 7 -16 124 -304 260 -640 136 -335 297 -731 357 -880 61 -148
148 -364 195 -480 47 -115 119 -293 161 -395 41 -102 139 -345 218 -540 91
-225 151 -361 165 -372 25 -21 65 -17 84 8 7 10 41 88 75 173 35 86 177 440
318 786 140 347 259 641 264 655 8 21 11 22 18 9 5 -8 84 -199 175 -423 91
-224 171 -420 177 -434 6 -15 12 -29 13 -32 1 -3 6 -16 12 -30 6 -14 70 -171
142 -350 72 -179 135 -332 140 -340 14 -26 56 -41 84 -31 13 5 27 15 30 23 3
7 60 148 126 313 67 165 126 309 131 320 11 23 80 192 170 415 34 85 68 169
75 185 7 17 52 127 100 245 48 118 93 229 100 245 7 17 32 77 55 135 23 58 49
121 57 140 8 19 19 44 23 55 8 18 598 1469 673 1653 24 61 27 78 18 98 -23 51
-91 47 -110 -7 -5 -15 -43 -110 -85 -211 -41 -101 -228 -559 -416 -1018 -187
-459 -358 -878 -380 -930 -22 -52 -152 -372 -290 -710 -257 -631 -289 -709
-300 -723 -4 -4 -25 39 -48 95 -22 57 -93 231 -157 388 -64 157 -163 402 -221
545 -58 143 -111 274 -118 290 -7 17 -39 94 -71 171 -61 152 -76 170 -127 152
-21 -7 -33 -25 -56 -81 -37 -88 -123 -301 -277 -682 -64 -159 -123 -303 -130
-320 -8 -16 -33 -77 -55 -135 -23 -58 -48 -118 -55 -135 -7 -16 -37 -90 -66
-162 -29 -73 -56 -130 -60 -125 -4 4 -17 32 -29 62 -12 30 -28 69 -35 85 -7
17 -111 269 -230 560 -119 292 -308 753 -420 1025 -112 272 -260 635 -330 805
-69 171 -132 324 -140 340 -7 17 -48 116 -90 220 -42 105 -82 204 -90 220 -7
17 -34 81 -59 143 -73 180 -83 192 -134 169z"/>
<path d="M1018 4378 c-15 -15 -19 -28 -15 -52 5 -28 180 -470 228 -573 10 -24
19 -45 19 -48 0 -5 283 -706 315 -780 7 -16 37 -88 65 -160 86 -216 100 -245
127 -251 43 -11 68 10 96 78 150 369 251 620 374 923 220 547 265 656 269 652
4 -4 60 -140 228 -557 48 -118 93 -228 101 -245 7 -16 60 -147 118 -290 58
-143 130 -320 160 -393 30 -74 62 -143 71 -153 20 -24 58 -24 84 -1 11 9 77
159 147 332 70 173 133 329 141 345 7 17 23 55 34 85 12 30 28 69 35 85 7 17
72 176 145 355 73 179 138 339 145 355 49 114 95 235 95 252 0 12 -11 30 -25
41 -34 27 -70 18 -89 -23 -13 -26 -464 -1122 -548 -1330 -11 -27 -24 -59 -29
-70 -4 -11 -25 -60 -45 -110 -20 -49 -39 -94 -41 -99 -7 -11 16 -67 -330 784
-162 399 -304 744 -314 767 -11 23 -19 46 -19 51 0 14 -35 42 -59 47 -12 2
-29 -4 -39 -15 -9 -10 -66 -139 -126 -287 -60 -147 -114 -281 -122 -298 -12
-30 -224 -551 -331 -815 -30 -74 -60 -148 -67 -165 -8 -16 -17 -41 -21 -54 -4
-12 -11 -19 -15 -15 -7 8 -191 452 -415 1004 -37 91 -73 179 -80 195 -7 17
-48 116 -90 220 -43 105 -85 198 -94 208 -26 27 -59 29 -83 5z"/>
</g>
</svg>
