<?xml version="1.0" standalone="no"?>
<!DOCTYPE svg PUBLIC "-//W3C//DTD SVG 20010904//EN"
 "http://www.w3.org/TR/2001/REC-SVG-20010904/DTD/svg10.dtd">
<svg version="1.0" xmlns="http://www.w3.org/2000/svg"
 width="500.000000pt" height="500.000000pt" viewBox="0 0 500.000000 500.000000"
 preserveAspectRatio="xMidYMid meet">
<metadata>
Created by potrace 1.14, written by Peter Selinger 2001-2017
</metadata>
<g transform="translate(0.000000,500.000000) scale(0.100000,-0.100000)"
fill="#000000" stroke="none">
<path d="M2440 4783 c0 -6 -8 -10 -17 -8 -27 4 -86 -32 -111 -70 -16 -22 -24
-50 -25 -84 -1 -28 -5 -51 -10 -51 -4 0 -3 -8 2 -18 7 -13 6 -23 -1 -30 -8 -8
-9 -12 -1 -12 11 0 11 -59 -1 -78 -3 -6 -3 -13 2 -16 10 -6 9 -77 -2 -94 -4
-7 -3 -12 1 -12 5 0 9 -22 9 -50 -1 -27 -5 -50 -10 -50 -5 0 -4 -6 1 -12 5 -7
10 -26 12 -43 3 -38 36 -87 71 -107 15 -9 51 -15 84 -16 52 0 62 4 95 34 21
18 42 48 47 66 9 32 11 497 1 528 -14 50 -57 100 -84 100 -7 0 -13 4 -13 9 0
5 -8 8 -17 7 -10 -2 -21 2 -25 8 -6 8 -8 8 -8 -1z"/>
<path d="M1088 4205 c-4 -4 -38 -12 -60 -14 -15 -2 -74 -66 -86 -94 -30 -71
-7 -140 77 -229 118 -126 296 -306 304 -307 4 0 8 -1 10 -2 19 -8 99 -2 122 9
100 50 123 188 45 272 -17 18 -30 33 -30 35 0 1 -36 39 -80 84 -44 46 -80 86
-80 89 0 4 -13 16 -29 27 -17 11 -28 21 -26 23 3 3 -38 45 -80 80 -9 7 -26 14
-38 14 -12 1 -27 5 -33 10 -6 4 -13 6 -16 3z"/>
<path d="M3765 4199 c-4 -5 -10 -7 -15 -4 -17 10 -54 -17 -132 -98 -43 -43
-78 -80 -78 -81 0 -1 -38 -42 -85 -91 -99 -102 -118 -133 -118 -195 0 -52 3
-64 28 -107 37 -60 149 -87 203 -48 50 36 333 338 358 383 22 39 25 98 6 142
-13 32 -46 70 -60 70 -6 0 -15 6 -19 13 -4 6 -15 13 -23 14 -8 1 -25 4 -37 7
-13 2 -25 0 -28 -5z"/>
<path d="M2231 3724 c-30 -7 -59 -10 -63 -8 -4 3 -8 0 -8 -6 0 -7 -7 -10 -15
-6 -8 3 -15 2 -15 -2 0 -5 -22 -14 -50 -21 -27 -7 -50 -18 -50 -24 0 -5 -3 -8
-6 -4 -8 7 -125 -53 -141 -73 -7 -8 -13 -11 -13 -7 0 9 -79 -49 -92 -68 -4 -5
-8 -7 -8 -3 0 8 -140 -128 -140 -136 0 -3 -8 -15 -17 -25 -36 -40 -89 -118
-113 -166 -8 -16 -21 -38 -29 -47 -8 -10 -11 -18 -6 -18 4 0 3 -6 -2 -12 -18
-23 -65 -157 -78 -223 -26 -125 -33 -220 -25 -375 5 -100 46 -290 63 -290 5 0
7 -6 4 -14 -3 -7 1 -23 9 -35 8 -11 12 -21 9 -21 -4 0 3 -15 14 -33 11 -19 18
-37 14 -40 -3 -4 -1 -7 5 -7 7 0 12 -9 12 -20 0 -11 4 -20 8 -20 5 0 15 -12
23 -27 14 -28 49 -84 59 -93 3 -3 25 -30 50 -60 25 -30 55 -66 68 -80 12 -14
25 -33 28 -42 3 -10 10 -18 15 -18 5 0 9 -5 9 -11 0 -6 9 -24 21 -40 11 -16
17 -29 14 -29 -4 0 -1 -10 7 -22 18 -28 55 -139 63 -193 14 -84 40 -148 78
-191 21 -24 45 -44 53 -44 8 0 14 -4 14 -9 0 -12 36 -25 100 -37 30 -5 648 -6
670 -1 87 22 109 34 161 88 34 36 66 91 74 127 2 9 8 36 13 60 5 23 8 42 6 42
-3 0 0 9 6 21 7 11 14 32 16 47 7 35 43 121 66 154 10 14 18 30 18 35 0 5 8
18 18 29 9 10 35 42 57 69 22 28 49 60 60 72 34 37 45 52 45 59 0 4 10 21 23
38 25 33 84 136 85 149 1 4 10 28 22 53 11 26 17 50 14 55 -3 5 2 12 10 15 9
3 14 9 11 14 -2 4 0 22 5 41 9 30 17 69 24 119 1 9 4 20 8 25 8 15 7 304 -2
339 -4 17 -16 68 -26 114 -9 46 -21 85 -26 88 -4 3 -8 14 -8 25 0 10 -4 27 -9
37 -32 62 -56 117 -54 124 2 4 -2 8 -7 8 -6 0 -10 7 -10 15 0 8 -4 15 -10 15
-5 0 -10 7 -10 15 0 8 -9 24 -20 35 -11 11 -20 23 -19 26 1 3 -8 17 -20 30
-12 13 -21 27 -21 30 0 3 -17 23 -38 43 -21 21 -48 51 -60 66 -12 15 -22 24
-22 20 0 -4 -15 7 -32 25 -18 17 -45 39 -60 48 -16 9 -28 20 -28 24 0 4 -5 8
-10 8 -6 0 -29 12 -53 27 -23 15 -44 28 -47 28 -3 0 -15 6 -26 13 -12 6 -24 9
-27 5 -4 -3 -9 2 -13 11 -3 9 -17 16 -29 16 -13 0 -26 4 -29 9 -3 4 -24 11
-46 15 -22 3 -40 10 -40 14 0 4 -12 7 -27 6 -16 -1 -34 3 -40 9 -7 5 -13 6
-13 2 0 -4 -6 -3 -12 2 -19 15 -323 12 -387 -3z m301 -338 c20 -9 40 -55 43
-99 2 -18 4 -33 5 -34 1 -2 4 -7 5 -13 1 -5 4 -13 5 -17 1 -5 2 -11 1 -15 0
-4 15 -10 34 -14 19 -3 35 -9 35 -13 0 -8 60 -31 81 -31 8 0 28 12 44 28 17
15 41 33 53 40 27 15 72 16 72 0 0 -6 3 -9 6 -5 8 8 114 -103 116 -122 0 -9 2
-23 3 -31 1 -8 -1 -19 -4 -25 -6 -10 -8 -17 -10 -36 0 -5 -5 -7 -11 -4 -5 3
-10 1 -10 -5 0 -7 -10 -26 -22 -42 -21 -30 -21 -31 -4 -77 10 -25 22 -60 27
-77 7 -24 17 -33 42 -39 17 -4 39 -9 47 -12 8 -2 25 -5 36 -7 12 -2 32 -13 45
-25 20 -19 23 -31 25 -111 2 -71 -1 -93 -14 -108 -23 -26 -61 -45 -78 -38 -8
3 -14 1 -14 -5 0 -6 -7 -9 -15 -6 -8 4 -17 2 -20 -3 -3 -5 -12 -7 -20 -4 -8 4
-20 -6 -30 -25 -8 -17 -13 -31 -10 -31 3 0 -1 -13 -9 -29 -9 -16 -12 -31 -9
-35 4 -3 1 -6 -5 -6 -21 0 -13 -41 19 -86 47 -68 54 -96 33 -136 -19 -38 -86
-108 -103 -108 -6 0 -11 -4 -11 -10 0 -21 -73 -4 -107 25 -7 5 -19 16 -27 23
-8 6 -20 12 -26 12 -5 0 -10 4 -10 10 0 9 -49 -8 -60 -21 -3 -3 -18 -9 -34
-13 -33 -8 -56 -28 -56 -50 0 -8 -4 -17 -8 -20 -5 -3 -9 -22 -10 -42 -2 -51
-9 -66 -37 -87 -28 -20 -122 -29 -168 -16 -32 9 -57 32 -62 57 -2 9 -4 17 -5
17 -3 0 -9 39 -12 67 -3 33 -35 72 -63 76 -11 2 -36 12 -56 21 l-35 17 -50
-34 c-27 -19 -51 -37 -54 -42 -3 -4 -20 -7 -37 -6 -57 2 -156 103 -158 161 -1
26 17 68 35 85 32 29 52 100 28 100 -6 0 -9 3 -5 6 3 4 0 19 -8 34 -8 15 -11
30 -8 34 4 3 1 6 -6 6 -7 0 -10 3 -7 8 6 10 -16 36 -34 41 -13 3 -50 9 -86 15
-21 3 -65 37 -59 46 3 4 0 10 -6 12 -11 4 -13 40 -10 140 1 39 40 79 81 84 19
2 44 7 55 11 11 4 26 8 34 9 16 3 32 25 25 35 -2 4 3 12 11 19 7 6 11 18 8 26
-3 8 -1 14 4 14 10 0 13 15 15 60 1 14 -14 48 -33 75 -45 66 -45 110 -1 155
18 17 32 36 32 41 0 6 4 8 9 5 5 -3 12 1 15 9 6 17 54 39 75 36 8 -2 40 -20
70 -40 79 -53 78 -53 93 -38 7 7 34 22 60 32 58 21 64 29 71 80 3 22 7 49 10
60 3 11 6 23 6 26 1 3 10 14 20 26 17 18 30 20 103 18 45 -1 90 -5 100 -9z"/>
<path d="M2378 2870 c-20 -4 -44 -12 -52 -20 -9 -7 -16 -9 -16 -6 0 22 -86
-73 -112 -123 -32 -62 -32 -175 1 -246 36 -80 115 -145 183 -149 15 -1 31 -5
34 -9 4 -3 15 -2 25 4 13 7 19 6 19 -1 0 -6 5 -8 10 -5 6 4 23 9 38 11 15 3
29 9 30 15 2 5 8 7 13 3 5 -3 9 0 9 6 0 6 4 9 8 6 13 -8 77 63 103 114 35 68
37 177 3 245 -24 50 -124 159 -124 136 0 -8 -8 -7 -22 3 -27 17 -99 24 -150
16z"/>
<path d="M519 2779 c-49 -8 -72 -23 -103 -67 -21 -31 -27 -51 -27 -96 -2 -111
70 -173 199 -172 34 1 62 -3 62 -7 0 -5 5 -5 12 -1 17 11 108 11 108 0 0 -5 6
-4 13 1 6 5 28 8 47 7 19 -1 46 -3 60 -3 105 -6 189 42 210 118 11 43 10 131
-3 131 -4 0 -11 8 -14 18 -9 22 -29 42 -42 42 -6 0 -11 5 -11 11 0 5 -4 8 -9
5 -5 -4 -11 -1 -13 5 -4 12 -425 19 -489 8z"/>
<path d="M3923 2780 c-51 -5 -81 -23 -113 -65 -8 -11 -15 -22 -15 -25 0 -3 -4
-11 -8 -18 -14 -22 -9 -98 8 -133 19 -38 47 -64 85 -81 21 -9 124 -19 190 -18
15 0 86 0 105 -1 6 0 32 2 58 4 26 2 50 0 53 -5 3 -5 10 -5 17 -1 6 3 25 7 42
9 60 4 132 61 143 114 8 41 3 123 -8 130 -6 4 -10 9 -9 11 7 9 -28 45 -60 63
-30 17 -58 19 -235 20 -111 1 -224 -1 -253 -4z"/>
<path d="M1326 1655 c-7 -8 -16 -12 -18 -9 -3 2 -77 -71 -164 -162 -87 -92
-164 -172 -171 -179 -22 -23 -41 -82 -38 -122 4 -55 23 -90 67 -126 31 -25 47
-30 88 -30 30 1 62 8 78 19 21 13 132 121 132 128 0 1 41 44 91 96 110 115
142 155 145 183 1 12 3 22 4 22 1 0 3 8 5 18 2 9 0 17 -4 17 -4 0 -6 12 -5 27
1 30 -34 92 -53 93 -7 0 -13 5 -13 11 0 5 -4 8 -9 5 -5 -4 -11 -1 -13 4 -5 17
-106 21 -122 5z"/>
<path d="M3430 1656 c-79 -34 -117 -140 -82 -226 11 -27 17 -35 177 -205 181
-194 178 -191 241 -198 115 -13 209 110 167 219 -7 17 -9 34 -6 38 4 3 -1 6
-10 6 -9 0 -17 6 -17 13 0 7 -8 20 -17 28 -10 9 -56 57 -103 108 -135 147
-174 186 -204 206 -32 21 -109 27 -146 11z"/>
<path d="M2080 960 c-48 -6 -79 -20 -98 -43 -13 -15 -26 -81 -23 -112 1 -11 2
-27 2 -35 -6 -155 21 -210 124 -259 38 -18 41 -23 58 -90 10 -39 25 -78 33
-85 8 -8 14 -18 14 -23 0 -4 17 -15 38 -23 29 -12 74 -15 207 -14 189 2 191 3
228 27 27 18 71 90 61 100 -3 3 -2 12 2 19 9 14 14 33 16 57 1 7 20 21 42 31
62 27 110 78 121 131 12 51 13 200 2 234 -11 34 -49 75 -70 75 -7 0 -18 5 -25
12 -9 9 -12 9 -12 0 0 -9 -5 -10 -17 -4 -17 9 -84 7 -110 -2 -7 -3 -14 -2 -17
2 -5 9 -48 8 -62 -1 -5 -3 -16 -2 -23 3 -8 4 -26 4 -42 0 -15 -5 -30 -6 -33
-3 -10 10 -66 11 -66 1 0 -5 -7 -5 -17 1 -10 5 -26 5 -39 1 -12 -5 -24 -6 -28
-3 -8 8 -76 11 -76 3 0 -4 -20 -4 -45 0 -24 4 -50 3 -57 -1 -6 -4 -19 -4 -27
0 -9 4 -36 4 -61 1z"/>
</g>
</svg>
