<svg id="visual" viewBox="0 0 900 300" width="900" height="300" xmlns="http://www.w3.org/2000/svg" xmlns:xlink="http://www.w3.org/1999/xlink" version="1.1"><rect x="0" y="0" width="900" height="300" fill="#212121"></rect><path d="M0 206L21.5 206.3C43 206.7 86 207.3 128.8 193.3C171.7 179.3 214.3 150.7 257.2 144.3C300 138 343 154 385.8 167.8C428.7 181.7 471.3 193.3 514.2 186.7C557 180 600 155 642.8 140.7C685.7 126.3 728.3 122.7 771.2 131.5C814 140.3 857 161.7 878.5 172.3L900 183L900 301L878.5 301C857 301 814 301 771.2 301C728.3 301 685.7 301 642.8 301C600 301 557 301 514.2 301C471.3 301 428.7 301 385.8 301C343 301 300 301 257.2 301C214.3 301 171.7 301 128.8 301C86 301 43 301 21.5 301L0 301Z" fill="#191919" stroke-linecap="round" stroke-linejoin="miter"></path></svg>