<svg version="1.1" id="Layer_1" xmlns="http://www.w3.org/2000/svg" xmlns:xlink="http://www.w3.org/1999/xlink" x="0px" y="0px"
	 width="100%" viewBox="0 0 446 101" enable-background="new 0 0 446 101" xml:space="preserve">
<path fill="#902035" opacity="0" stroke="none" 
	d="
M374.000000,102.000000 
	C249.333374,102.000000 125.166756,102.000000 1.000100,102.000000 
	C1.000067,68.333389 1.000067,34.666779 1.000033,1.000127 
	C149.666550,1.000085 298.333099,1.000085 446.999756,1.000042 
	C446.999817,34.666546 446.999817,68.333092 446.999908,101.999817 
	C422.833344,102.000000 398.666656,102.000000 374.000000,102.000000 
M152.918808,69.792892 
	C145.807266,69.792892 138.695709,69.792892 131.449219,69.792892 
	C131.449219,71.825211 131.449219,73.231239 131.449219,75.154205 
	C138.975891,75.154205 146.267227,75.246040 153.555206,75.128586 
	C160.964020,75.009178 166.289062,71.655090 167.857147,66.391136 
	C169.750015,60.036846 167.248886,54.790749 160.383423,50.514309 
	C161.454117,49.318924 162.586929,48.122173 163.644409,46.862190 
	C169.191727,40.252556 165.322845,27.898859 157.025574,27.164383 
	C148.639847,26.422071 140.137207,27.000755 131.542816,27.000755 
	C131.542816,39.451786 131.542816,51.667274 131.542816,63.973091 
	C133.503601,63.973091 135.110092,63.973091 137.263977,63.973091 
	C137.263977,53.367050 137.263977,42.962929 137.263977,32.152031 
	C142.933640,32.152031 148.071289,31.957912 153.186844,32.210739 
	C157.632065,32.430431 160.207123,35.736961 160.064941,40.348618 
	C159.923859,44.925392 157.221207,47.793457 152.641739,48.000286 
	C149.696716,48.133289 146.740799,48.025246 143.420731,48.025246 
	C143.509155,50.008892 143.570557,51.386127 143.644760,53.050678 
	C146.870132,53.050678 149.687469,52.991653 152.501495,53.063229 
	C157.990463,53.202847 161.606689,56.078320 162.050232,60.561707 
	C162.540665,65.519043 159.864090,68.509087 152.918808,69.792892 
M36.183472,68.822098 
	C37.543915,65.628296 38.803402,62.385601 40.314842,59.264938 
	C40.913239,58.029430 42.071655,57.065159 42.975094,55.977390 
	C43.930210,57.121395 45.095757,58.150764 45.794918,59.434204 
	C47.093281,61.817596 48.119484,64.349251 49.312405,66.934921 
	C52.564861,63.617981 52.574196,60.307827 50.585262,56.752213 
	C47.292702,50.866108 45.914440,45.094852 50.075344,38.773891 
	C52.278877,35.426441 53.361404,31.341064 54.950344,27.588030 
	C50.914860,25.971298 49.205265,27.432472 47.747475,30.773769 
	C42.535110,42.720669 37.007076,54.529842 31.296654,67.052986 
	C30.270472,65.367867 29.463896,64.381470 29.014524,63.252850 
	C24.777935,52.612389 20.375614,42.028885 16.514351,31.252222 
	C14.838651,26.575397 12.264150,25.875261 8.006824,27.158430 
	C14.380188,42.272747 20.559441,57.096722 26.957054,71.825851 
	C27.571634,73.240791 29.556437,74.940231 30.883715,74.922279 
	C32.252323,74.903778 33.676025,73.028557 34.911152,71.800285 
	C35.454304,71.260155 35.590229,70.310524 36.183472,68.822098 
M369.996490,67.472824 
	C371.337952,69.155334 372.425385,71.173431 374.087860,72.431847 
	C375.987549,73.869827 378.398865,74.631897 381.048828,75.909996 
	C381.048828,58.666901 381.048828,42.963352 381.048828,27.249088 
	C378.879913,27.249088 377.138245,27.249088 375.008362,27.249088 
	C375.008362,39.242706 375.008362,50.961288 375.008362,63.591225 
	C373.410370,61.865101 372.372009,60.878510 371.488831,59.768440 
	C363.445923,49.659168 355.523163,39.451729 347.313934,29.479908 
	C345.958588,27.833511 343.383057,27.191576 341.371399,26.085443 
	C340.810883,26.753082 340.250336,27.420719 339.689819,28.088358 
	C348.216125,42.071152 359.942627,53.729069 369.996490,67.472824 
M192.343079,27.703939 
	C179.017303,32.460987 173.539978,48.493244 178.977112,60.978031 
	C184.496368,73.651436 198.547745,79.128662 208.739685,72.725838 
	C208.739685,71.184273 208.739685,69.572388 208.739685,67.905853 
	C196.545151,71.079369 189.925369,69.060234 185.431839,60.916588 
	C181.057098,52.988255 182.688126,41.439167 189.449402,35.916771 
	C191.761887,34.028027 194.934402,32.666260 197.892838,32.200947 
	C204.608856,31.144623 209.473572,34.959034 213.444275,40.047226 
	C215.045349,38.800320 216.201370,37.900024 217.301697,37.043098 
	C213.563324,27.497015 201.862915,25.055048 192.343079,27.703939 
M418.583130,75.002434 
	C420.606995,74.342484 422.630890,73.682533 424.858063,72.956291 
	C424.773529,71.123573 424.700989,69.550705 424.624084,67.882698 
	C412.513855,71.185837 405.596832,68.977791 401.203186,60.660851 
	C396.954926,52.619091 398.769958,41.007324 405.590149,35.698650 
	C407.948029,33.863335 411.154236,32.554516 414.121155,32.180393 
	C420.630035,31.359644 425.444550,34.965881 429.217621,40.069035 
	C430.856323,38.832409 432.023163,37.951893 433.155426,37.097446 
	C428.102295,27.387962 416.165039,23.663275 406.139771,28.476566 
	C396.822754,32.949825 391.570709,43.384758 392.948792,54.684765 
	C394.460907,67.083847 405.955963,76.529396 418.583130,75.002434 
M54.997261,68.310143 
	C54.099541,70.348083 53.201820,72.386024 52.213478,74.629692 
	C56.141232,75.721046 58.209114,75.294098 59.655933,71.516319 
	C63.389000,61.768932 67.690811,52.240326 71.708099,42.600433 
	C73.826653,37.516731 75.825272,32.383049 77.959915,27.068083 
	C74.274132,26.421787 71.664284,26.000956 70.247192,29.689400 
	C65.373634,42.374493 60.324135,54.991989 54.997261,68.310143 
M326.127899,28.760599 
	C324.409790,27.952759 322.691681,27.144918 320.292023,26.016607 
	C320.292023,43.197788 320.292023,58.924713 320.292023,74.839615 
	C322.292145,74.839615 324.016235,74.839615 326.151703,74.839615 
	C326.151703,59.611732 326.151703,44.661789 326.127899,28.760599 
M247.542114,32.127792 
	C252.803116,32.127792 258.064117,32.127792 263.758057,32.127792 
	C263.574738,29.991001 263.444092,28.468103 263.310425,26.910023 
	C252.587158,26.910023 242.369843,26.910023 231.922546,26.910023 
	C231.922546,31.853449 231.922546,36.552582 231.922546,41.295227 
	C233.994995,41.295227 235.725632,41.295227 237.667252,41.295227 
	C237.808487,38.079529 237.934662,35.206566 238.069885,32.127792 
	C241.284027,32.127792 243.920975,32.127792 247.542114,32.127792 
M116.700356,26.671593 
	C107.131744,26.671593 97.563133,26.671593 87.935005,26.671593 
	C87.935005,31.974483 87.935005,36.654701 87.935005,41.666328 
	C89.939110,41.566292 91.513954,41.487679 93.318565,41.397598 
	C93.489052,38.134426 93.639267,35.259258 93.810318,31.985394 
	C102.582291,31.985394 110.800858,31.985394 120.262215,31.985394 
	C119.065849,29.664316 118.300209,28.178879 116.700356,26.671593 
M293.458374,55.502224 
	C293.458374,49.876965 293.458374,44.251701 293.458374,38.202118 
	C291.130585,38.320694 289.422211,38.407719 287.684814,38.496220 
	C287.684814,50.976860 287.684814,62.888985 287.684814,74.815506 
	C289.719879,74.815506 291.436096,74.815506 293.458252,74.815506 
	C293.458252,68.465858 293.458252,62.483246 293.458374,55.502224 
M110.295334,53.051823 
	C112.212570,53.051823 114.129814,53.051823 116.348305,53.051823 
	C116.226311,50.977356 116.142754,49.556484 116.057892,48.113426 
	C106.487328,48.113426 97.253036,48.113426 87.799347,48.113426 
	C87.799347,53.262505 87.799347,58.159615 87.799347,63.150978 
	C89.784180,63.150978 91.488441,63.150978 93.596344,63.150978 
	C93.596344,59.681911 93.596344,56.585423 93.596344,53.051823 
	C99.114998,53.051823 104.229881,53.051823 110.295334,53.051823 
M258.819977,53.006054 
	C259.455292,51.533676 260.090607,50.061298 260.913330,48.154625 
	C250.443100,48.154625 241.221405,48.154625 231.906738,48.154625 
	C231.906738,53.344414 231.906738,58.243122 231.906738,63.195541 
	C233.962692,63.195541 235.701614,63.195541 238.005737,63.195541 
	C238.005737,59.670147 238.005737,56.466114 238.005737,53.041241 
	C245.027359,53.041241 251.482498,53.041241 258.819977,53.006054 
M340.224396,45.978115 
	C340.224396,55.578297 340.224396,65.178482 340.224396,74.989319 
	C342.641846,74.989319 344.421875,74.989319 346.777679,74.989319 
	C346.777679,67.360703 346.529175,59.901550 346.861755,52.468403 
	C347.098236,47.182842 344.072540,44.184162 340.224396,40.284061 
	C340.224396,42.546444 340.224396,43.837555 340.224396,45.978115 
M284.505066,32.113102 
	C292.938660,32.113102 301.372223,32.113102 309.890411,32.113102 
	C309.890411,30.114048 309.890411,28.585766 309.890411,27.079739 
	C296.666809,27.079739 283.813812,27.079739 270.885925,27.079739 
	C270.885925,28.872959 270.885925,30.282398 270.885925,32.113102 
	C275.263153,32.113102 279.384918,32.113102 284.505066,32.113102 
M208.663071,51.017551 
	C207.202545,51.017551 205.742020,51.017551 204.195709,51.017551 
	C204.195709,52.681324 204.195709,53.919353 204.195709,55.351898 
	C207.485245,55.533905 210.537643,55.702793 214.046127,55.896915 
	C214.046127,62.544273 214.046127,68.766335 214.046127,75.262535 
	C215.971680,75.086716 217.373474,74.958725 218.774170,74.830833 
	C218.774170,66.778702 218.774170,59.090332 218.774170,51.017532 
	C215.510406,51.017532 212.560699,51.017532 208.663071,51.017551 
M429.762482,63.573357 
	C429.762482,67.342987 429.762482,71.112610 429.762482,75.200867 
	C431.799896,75.066551 433.198059,74.974373 434.649353,74.878693 
	C434.649353,66.798622 434.649353,59.090313 434.649353,51.263672 
	C429.549683,51.263672 424.797211,51.263672 419.674011,51.263672 
	C420.110413,58.980019 426.768524,53.539028 429.762482,56.971050 
	C429.762482,58.351830 429.762482,60.477375 429.762482,63.573357 
M105.497765,69.818588 
	C99.583328,69.818588 93.668900,69.818588 87.481163,69.818588 
	C87.652573,71.980072 87.764542,73.391968 87.879906,74.846764 
	C98.805603,74.846764 109.354462,74.846764 120.034798,74.846764 
	C120.034798,73.140152 120.034798,71.728035 120.034798,69.818588 
	C115.384216,69.818588 110.939674,69.818588 105.497765,69.818588 
M240.526367,75.138733 
	C248.285873,75.138733 256.045380,75.138733 263.938660,75.138733 
	C263.938660,73.140907 263.938660,71.651505 263.938660,70.135208 
	C252.995468,70.135208 242.457626,70.135208 231.917511,70.135208 
	C231.917511,71.873993 231.917511,73.285011 231.917511,75.138733 
	C234.632843,75.138733 237.084229,75.138733 240.526367,75.138733 
M36.299488,38.967300 
	C36.710484,39.550949 37.121479,40.134602 37.538296,40.726513 
	C41.893806,36.413261 39.315094,32.236076 37.193722,28.527927 
	C36.448841,27.225874 33.534615,27.164864 30.528193,26.183861 
	C32.748283,31.156109 34.348347,34.739700 36.299488,38.967300 
z"/>
<path fill="#FAF5F6" opacity="1.000000" stroke="none" 
	d="
M153.356537,69.788712 
	C159.864090,68.509087 162.540665,65.519043 162.050232,60.561707 
	C161.606689,56.078320 157.990463,53.202847 152.501495,53.063229 
	C149.687469,52.991653 146.870132,53.050678 143.644760,53.050678 
	C143.570557,51.386127 143.509155,50.008892 143.420731,48.025246 
	C146.740799,48.025246 149.696716,48.133289 152.641739,48.000286 
	C157.221207,47.793457 159.923859,44.925392 160.064941,40.348618 
	C160.207123,35.736961 157.632065,32.430431 153.186844,32.210739 
	C148.071289,31.957912 142.933640,32.152031 137.263977,32.152031 
	C137.263977,42.962929 137.263977,53.367050 137.263977,63.973091 
	C135.110092,63.973091 133.503601,63.973091 131.542816,63.973091 
	C131.542816,51.667274 131.542816,39.451786 131.542816,27.000755 
	C140.137207,27.000755 148.639847,26.422071 157.025574,27.164383 
	C165.322845,27.898859 169.191727,40.252556 163.644409,46.862190 
	C162.586929,48.122173 161.454117,49.318924 160.383423,50.514309 
	C167.248886,54.790749 169.750015,60.036846 167.857147,66.391136 
	C166.289062,71.655090 160.964020,75.009178 153.555206,75.128586 
	C146.267227,75.246040 138.975891,75.154205 131.449219,75.154205 
	C131.449219,73.231239 131.449219,71.825211 131.449219,69.792892 
	C138.695709,69.792892 145.807266,69.792892 153.356537,69.788712 
z"/>
<path fill="#F9F3F4" opacity="1.000000" stroke="none" 
	d="
M36.047260,69.184464 
	C35.590229,70.310524 35.454304,71.260155 34.911152,71.800285 
	C33.676025,73.028557 32.252323,74.903778 30.883715,74.922279 
	C29.556437,74.940231 27.571634,73.240791 26.957054,71.825851 
	C20.559441,57.096722 14.380188,42.272747 8.006824,27.158430 
	C12.264150,25.875261 14.838651,26.575397 16.514351,31.252222 
	C20.375614,42.028885 24.777935,52.612389 29.014524,63.252850 
	C29.463896,64.381470 30.270472,65.367867 31.296654,67.052986 
	C37.007076,54.529842 42.535110,42.720669 47.747475,30.773769 
	C49.205265,27.432472 50.914860,25.971298 54.950344,27.588030 
	C53.361404,31.341064 52.278877,35.426441 50.075344,38.773891 
	C45.914440,45.094852 47.292702,50.866108 50.585262,56.752213 
	C52.574196,60.307827 52.564861,63.617981 49.312405,66.934921 
	C48.119484,64.349251 47.093281,61.817596 45.794918,59.434204 
	C45.095757,58.150764 43.930210,57.121395 42.975090,55.977386 
	C42.071655,57.065159 40.913239,58.029430 40.314842,59.264938 
	C38.803402,62.385601 37.543915,65.628296 36.047260,69.184464 
z"/>
<path fill="#FDFBFB" opacity="1.000000" stroke="none" 
	d="
M369.742554,67.221962 
	C359.942627,53.729069 348.216125,42.071152 339.689819,28.088358 
	C340.250336,27.420719 340.810883,26.753082 341.371399,26.085443 
	C343.383057,27.191576 345.958588,27.833511 347.313934,29.479908 
	C355.523163,39.451729 363.445923,49.659168 371.488831,59.768440 
	C372.372009,60.878510 373.410370,61.865101 375.008362,63.591225 
	C375.008362,50.961288 375.008362,39.242706 375.008362,27.249088 
	C377.138245,27.249088 378.879913,27.249088 381.048828,27.249088 
	C381.048828,42.963352 381.048828,58.666901 381.048828,75.909996 
	C378.398865,74.631897 375.987549,73.869827 374.087860,72.431847 
	C372.425385,71.173431 371.337952,69.155334 369.742554,67.221962 
z"/>
<path fill="#FBF6F7" opacity="1.000000" stroke="none" 
	d="
M192.715240,27.570362 
	C201.862915,25.055048 213.563324,27.497015 217.301697,37.043098 
	C216.201370,37.900024 215.045349,38.800320 213.444275,40.047226 
	C209.473572,34.959034 204.608856,31.144623 197.892838,32.200947 
	C194.934402,32.666260 191.761887,34.028027 189.449402,35.916771 
	C182.688126,41.439167 181.057098,52.988255 185.431839,60.916588 
	C189.925369,69.060234 196.545151,71.079369 208.739685,67.905853 
	C208.739685,69.572388 208.739685,71.184273 208.739685,72.725838 
	C198.547745,79.128662 184.496368,73.651436 178.977112,60.978031 
	C173.539978,48.493244 179.017303,32.460987 192.715240,27.570362 
z"/>
<path fill="#FAF4F5" opacity="1.000000" stroke="none" 
	d="
M418.183105,75.046814 
	C405.955963,76.529396 394.460907,67.083847 392.948792,54.684765 
	C391.570709,43.384758 396.822754,32.949825 406.139771,28.476566 
	C416.165039,23.663275 428.102295,27.387962 433.155426,37.097446 
	C432.023163,37.951893 430.856323,38.832409 429.217621,40.069035 
	C425.444550,34.965881 420.630035,31.359644 414.121155,32.180393 
	C411.154236,32.554516 407.948029,33.863335 405.590149,35.698650 
	C398.769958,41.007324 396.954926,52.619091 401.203186,60.660851 
	C405.596832,68.977791 412.513855,71.185837 424.624084,67.882698 
	C424.700989,69.550705 424.773529,71.123573 424.858063,72.956291 
	C422.630890,73.682533 420.606995,74.342484 418.183105,75.046814 
z"/>
<path fill="#F7EFF0" opacity="1.000000" stroke="none" 
	d="
M55.169472,67.972694 
	C60.324135,54.991989 65.373634,42.374493 70.247192,29.689400 
	C71.664284,26.000956 74.274132,26.421787 77.959915,27.068083 
	C75.825272,32.383049 73.826653,37.516731 71.708099,42.600433 
	C67.690811,52.240326 63.389000,61.768932 59.655933,71.516319 
	C58.209114,75.294098 56.141232,75.721046 52.213478,74.629692 
	C53.201820,72.386024 54.099541,70.348083 55.169472,67.972694 
z"/>
<path fill="#F9F4F5" opacity="1.000000" stroke="none" 
	d="
M326.139801,29.236221 
	C326.151703,44.661789 326.151703,59.611732 326.151703,74.839615 
	C324.016235,74.839615 322.292145,74.839615 320.292023,74.839615 
	C320.292023,58.924713 320.292023,43.197788 320.292023,26.016607 
	C322.691681,27.144918 324.409790,27.952759 326.139801,29.236221 
z"/>
<path fill="#FAF5F6" opacity="1.000000" stroke="none" 
	d="
M247.050018,32.127792 
	C243.920975,32.127792 241.284027,32.127792 238.069885,32.127792 
	C237.934662,35.206566 237.808487,38.079529 237.667252,41.295227 
	C235.725632,41.295227 233.994995,41.295227 231.922546,41.295227 
	C231.922546,36.552582 231.922546,31.853449 231.922546,26.910023 
	C242.369843,26.910023 252.587158,26.910023 263.310425,26.910023 
	C263.444092,28.468103 263.574738,29.991001 263.758057,32.127792 
	C258.064117,32.127792 252.803116,32.127792 247.050018,32.127792 
z"/>
<path fill="#FAF5F6" opacity="1.000000" stroke="none" 
	d="
M117.117462,26.682518 
	C118.300209,28.178879 119.065849,29.664316 120.262215,31.985394 
	C110.800858,31.985394 102.582291,31.985394 93.810318,31.985394 
	C93.639267,35.259258 93.489052,38.134426 93.318565,41.397598 
	C91.513954,41.487679 89.939110,41.566292 87.935005,41.666328 
	C87.935005,36.654701 87.935005,31.974483 87.935005,26.671593 
	C97.563133,26.671593 107.131744,26.671593 117.117462,26.682518 
z"/>
<path fill="#F5ECED" opacity="1.000000" stroke="none" 
	d="
M293.458313,56.001427 
	C293.458252,62.483246 293.458252,68.465858 293.458252,74.815506 
	C291.436096,74.815506 289.719879,74.815506 287.684814,74.815506 
	C287.684814,62.888985 287.684814,50.976860 287.684814,38.496220 
	C289.422211,38.407719 291.130585,38.320694 293.458374,38.202118 
	C293.458374,44.251701 293.458374,49.876965 293.458313,56.001427 
z"/>
<path fill="#FAF5F6" opacity="1.000000" stroke="none" 
	d="
M109.820053,53.051823 
	C104.229881,53.051823 99.114998,53.051823 93.596344,53.051823 
	C93.596344,56.585423 93.596344,59.681911 93.596344,63.150978 
	C91.488441,63.150978 89.784180,63.150978 87.799347,63.150978 
	C87.799347,58.159615 87.799347,53.262505 87.799347,48.113426 
	C97.253036,48.113426 106.487328,48.113426 116.057892,48.113426 
	C116.142754,49.556484 116.226311,50.977356 116.348305,53.051823 
	C114.129814,53.051823 112.212570,53.051823 109.820053,53.051823 
z"/>
<path fill="#FBF7F8" opacity="1.000000" stroke="none" 
	d="
M258.378784,53.023647 
	C251.482498,53.041241 245.027359,53.041241 238.005737,53.041241 
	C238.005737,56.466114 238.005737,59.670147 238.005737,63.195541 
	C235.701614,63.195541 233.962692,63.195541 231.906738,63.195541 
	C231.906738,58.243122 231.906738,53.344414 231.906738,48.154625 
	C241.221405,48.154625 250.443100,48.154625 260.913330,48.154625 
	C260.090607,50.061298 259.455292,51.533676 258.378784,53.023647 
z"/>
<path fill="#F0E1E4" opacity="1.000000" stroke="none" 
	d="
M340.224396,45.553391 
	C340.224396,43.837555 340.224396,42.546444 340.224396,40.284061 
	C344.072540,44.184162 347.098236,47.182842 346.861755,52.468403 
	C346.529175,59.901550 346.777679,67.360703 346.777679,74.989319 
	C344.421875,74.989319 342.641846,74.989319 340.224396,74.989319 
	C340.224396,65.178482 340.224396,55.578297 340.224396,45.553391 
z"/>
<path fill="#FDFAFB" opacity="1.000000" stroke="none" 
	d="
M284.005859,32.113102 
	C279.384918,32.113102 275.263153,32.113102 270.885925,32.113102 
	C270.885925,30.282398 270.885925,28.872959 270.885925,27.079739 
	C283.813812,27.079739 296.666809,27.079739 309.890411,27.079739 
	C309.890411,28.585766 309.890411,30.114048 309.890411,32.113102 
	C301.372223,32.113102 292.938660,32.113102 284.005859,32.113102 
z"/>
<path fill="#F9F3F4" opacity="1.000000" stroke="none" 
	d="
M209.137024,51.017540 
	C212.560699,51.017532 215.510406,51.017532 218.774170,51.017532 
	C218.774170,59.090332 218.774170,66.778702 218.774170,74.830833 
	C217.373474,74.958725 215.971680,75.086716 214.046127,75.262535 
	C214.046127,68.766335 214.046127,62.544273 214.046127,55.896915 
	C210.537643,55.702793 207.485245,55.533905 204.195709,55.351898 
	C204.195709,53.919353 204.195709,52.681324 204.195709,51.017551 
	C205.742020,51.017551 207.202545,51.017551 209.137024,51.017540 
z"/>
<path fill="#F7F0F1" opacity="1.000000" stroke="none" 
	d="
M429.762482,63.088139 
	C429.762482,60.477375 429.762482,58.351830 429.762482,56.971050 
	C426.768524,53.539028 420.110413,58.980019 419.674011,51.263672 
	C424.797211,51.263672 429.549683,51.263672 434.649353,51.263672 
	C434.649353,59.090313 434.649353,66.798622 434.649353,74.878693 
	C433.198059,74.974373 431.799896,75.066551 429.762482,75.200867 
	C429.762482,71.112610 429.762482,67.342987 429.762482,63.088139 
z"/>
<path fill="#FEFDFE" opacity="1.000000" stroke="none" 
	d="
M105.996445,69.818588 
	C110.939674,69.818588 115.384216,69.818588 120.034798,69.818588 
	C120.034798,71.728035 120.034798,73.140152 120.034798,74.846764 
	C109.354462,74.846764 98.805603,74.846764 87.879906,74.846764 
	C87.764542,73.391968 87.652573,71.980072 87.481163,69.818588 
	C93.668900,69.818588 99.583328,69.818588 105.996445,69.818588 
z"/>
<path fill="#FEFDFD" opacity="1.000000" stroke="none" 
	d="
M240.030991,75.138733 
	C237.084229,75.138733 234.632843,75.138733 231.917511,75.138733 
	C231.917511,73.285011 231.917511,71.873993 231.917511,70.135208 
	C242.457626,70.135208 252.995468,70.135208 263.938660,70.135208 
	C263.938660,71.651505 263.938660,73.140907 263.938660,75.138733 
	C256.045380,75.138733 248.285873,75.138733 240.030991,75.138733 
z"/>
<path fill="#F4EAEC" opacity="1.000000" stroke="none" 
	d="
M36.123947,38.645298 
	C34.348347,34.739700 32.748283,31.156109 30.528193,26.183861 
	C33.534615,27.164864 36.448841,27.225874 37.193722,28.527927 
	C39.315094,32.236076 41.893806,36.413261 37.538296,40.726513 
	C37.121479,40.134602 36.710484,39.550949 36.123947,38.645298 
z"/>
</svg>