<svg xmlns="http://www.w3.org/2000/svg" xmlns:xlink="http://www.w3.org/1999/xlink" width="200" zoomAndPan="magnify" viewBox="0 0 150 37.5" height="50" preserveAspectRatio="xMidYMid meet" version="1.0"><defs><g/></defs><g fill="#ffaf02" fill-opacity="1"><g transform="translate(4.30587, 25.263155)"><g><path d="M 22.3125 -15.234375 L 18.34375 0 L 13.84375 0 L 11.421875 -10.03125 L 8.890625 0 L 4.40625 0 L 0.546875 -15.234375 L 4.515625 -15.234375 L 6.703125 -4.140625 L 9.421875 -15.234375 L 13.5 -15.234375 L 16.109375 -4.140625 L 18.3125 -15.234375 Z M 22.3125 -15.234375 "/></g></g></g><g fill="#ffaf02" fill-opacity="1"><g transform="translate(27.14127, 25.263155)"><g><path d="M 5.0625 -12.265625 L 5.0625 -9.1875 L 10.03125 -9.1875 L 10.03125 -6.3125 L 5.0625 -6.3125 L 5.0625 -2.96875 L 10.671875 -2.96875 L 10.671875 0 L 1.34375 0 L 1.34375 -15.234375 L 10.671875 -15.234375 L 10.671875 -12.265625 Z M 5.0625 -12.265625 "/></g></g></g><g fill="#ffaf02" fill-opacity="1"><g transform="translate(38.884568, 25.263155)"><g><path d="M 10.5625 -7.8125 C 11.445312 -7.625 12.15625 -7.1875 12.6875 -6.5 C 13.226562 -5.8125 13.5 -5.023438 13.5 -4.140625 C 13.5 -2.867188 13.050781 -1.859375 12.15625 -1.109375 C 11.269531 -0.367188 10.03125 0 8.4375 0 L 1.34375 0 L 1.34375 -15.234375 L 8.203125 -15.234375 C 9.753906 -15.234375 10.96875 -14.878906 11.84375 -14.171875 C 12.71875 -13.460938 13.15625 -12.5 13.15625 -11.28125 C 13.15625 -10.382812 12.914062 -9.640625 12.4375 -9.046875 C 11.96875 -8.453125 11.34375 -8.039062 10.5625 -7.8125 Z M 5.0625 -9.078125 L 7.484375 -9.078125 C 8.097656 -9.078125 8.566406 -9.207031 8.890625 -9.46875 C 9.210938 -9.738281 9.375 -10.132812 9.375 -10.65625 C 9.375 -11.175781 9.210938 -11.570312 8.890625 -11.84375 C 8.566406 -12.125 8.097656 -12.265625 7.484375 -12.265625 L 5.0625 -12.265625 Z M 7.796875 -3 C 8.410156 -3 8.890625 -3.140625 9.234375 -3.421875 C 9.578125 -3.703125 9.75 -4.109375 9.75 -4.640625 C 9.75 -5.179688 9.570312 -5.601562 9.21875 -5.90625 C 8.863281 -6.207031 8.375 -6.359375 7.75 -6.359375 L 5.0625 -6.359375 L 5.0625 -3 Z M 7.796875 -3 "/></g></g></g><g fill="#ffaf02" fill-opacity="1"><g transform="translate(53.189257, 25.263155)"><g><path d="M 7.046875 -15.234375 C 8.660156 -15.234375 10.066406 -14.914062 11.265625 -14.28125 C 12.460938 -13.644531 13.390625 -12.75 14.046875 -11.59375 C 14.710938 -10.445312 15.046875 -9.125 15.046875 -7.625 C 15.046875 -6.125 14.710938 -4.796875 14.046875 -3.640625 C 13.390625 -2.484375 12.457031 -1.585938 11.25 -0.953125 C 10.039062 -0.316406 8.640625 0 7.046875 0 L 1.34375 0 L 1.34375 -15.234375 Z M 6.8125 -3.21875 C 8.21875 -3.21875 9.3125 -3.597656 10.09375 -4.359375 C 10.875 -5.128906 11.265625 -6.21875 11.265625 -7.625 C 11.265625 -9.019531 10.875 -10.109375 10.09375 -10.890625 C 9.3125 -11.671875 8.21875 -12.0625 6.8125 -12.0625 L 5.0625 -12.0625 L 5.0625 -3.21875 Z M 6.8125 -3.21875 "/></g></g></g><g fill="#ffaf02" fill-opacity="1"><g transform="translate(68.969996, 25.263155)"><g><path d="M 5.0625 -12.265625 L 5.0625 -9.1875 L 10.03125 -9.1875 L 10.03125 -6.3125 L 5.0625 -6.3125 L 5.0625 -2.96875 L 10.671875 -2.96875 L 10.671875 0 L 1.34375 0 L 1.34375 -15.234375 L 10.671875 -15.234375 L 10.671875 -12.265625 Z M 5.0625 -12.265625 "/></g></g></g><g fill="#ffaf02" fill-opacity="1"><g transform="translate(80.713294, 25.263155)"><g><path d="M 6.859375 0.15625 C 5.742188 0.15625 4.742188 -0.0234375 3.859375 -0.390625 C 2.984375 -0.753906 2.28125 -1.289062 1.75 -2 C 1.21875 -2.707031 0.9375 -3.5625 0.90625 -4.5625 L 4.859375 -4.5625 C 4.921875 -4 5.117188 -3.566406 5.453125 -3.265625 C 5.785156 -2.972656 6.21875 -2.828125 6.75 -2.828125 C 7.300781 -2.828125 7.734375 -2.953125 8.046875 -3.203125 C 8.367188 -3.453125 8.53125 -3.800781 8.53125 -4.25 C 8.53125 -4.625 8.398438 -4.9375 8.140625 -5.1875 C 7.890625 -5.4375 7.578125 -5.640625 7.203125 -5.796875 C 6.835938 -5.953125 6.316406 -6.132812 5.640625 -6.34375 C 4.660156 -6.644531 3.859375 -6.945312 3.234375 -7.25 C 2.609375 -7.550781 2.070312 -8 1.625 -8.59375 C 1.175781 -9.1875 0.953125 -9.960938 0.953125 -10.921875 C 0.953125 -12.335938 1.460938 -13.445312 2.484375 -14.25 C 3.515625 -15.050781 4.859375 -15.453125 6.515625 -15.453125 C 8.191406 -15.453125 9.539062 -15.050781 10.5625 -14.25 C 11.59375 -13.445312 12.144531 -12.328125 12.21875 -10.890625 L 8.203125 -10.890625 C 8.171875 -11.390625 7.988281 -11.78125 7.65625 -12.0625 C 7.320312 -12.34375 6.894531 -12.484375 6.375 -12.484375 C 5.925781 -12.484375 5.566406 -12.363281 5.296875 -12.125 C 5.023438 -11.882812 4.890625 -11.539062 4.890625 -11.09375 C 4.890625 -10.601562 5.117188 -10.21875 5.578125 -9.9375 C 6.035156 -9.664062 6.757812 -9.367188 7.75 -9.046875 C 8.726562 -8.710938 9.523438 -8.394531 10.140625 -8.09375 C 10.753906 -7.789062 11.285156 -7.347656 11.734375 -6.765625 C 12.191406 -6.191406 12.421875 -5.445312 12.421875 -4.53125 C 12.421875 -3.664062 12.195312 -2.878906 11.75 -2.171875 C 11.3125 -1.460938 10.671875 -0.894531 9.828125 -0.46875 C 8.992188 -0.0507812 8.003906 0.15625 6.859375 0.15625 Z M 6.859375 0.15625 "/></g></g></g><g fill="#ffaf02" fill-opacity="1"><g transform="translate(94.062891, 25.263155)"><g><path d="M 5.0625 -15.234375 L 5.0625 0 L 1.34375 0 L 1.34375 -15.234375 Z M 5.0625 -15.234375 "/></g></g></g><g fill="#ffaf02" fill-opacity="1"><g transform="translate(100.466357, 25.263155)"><g><path d="M 11.453125 -10.421875 C 11.179688 -10.921875 10.785156 -11.304688 10.265625 -11.578125 C 9.753906 -11.847656 9.15625 -11.984375 8.46875 -11.984375 C 7.257812 -11.984375 6.296875 -11.585938 5.578125 -10.796875 C 4.859375 -10.003906 4.5 -8.953125 4.5 -7.640625 C 4.5 -6.234375 4.875 -5.132812 5.625 -4.34375 C 6.382812 -3.5625 7.429688 -3.171875 8.765625 -3.171875 C 9.679688 -3.171875 10.453125 -3.398438 11.078125 -3.859375 C 11.710938 -4.328125 12.171875 -4.992188 12.453125 -5.859375 L 7.75 -5.859375 L 7.75 -8.59375 L 15.828125 -8.59375 L 15.828125 -5.140625 C 15.546875 -4.210938 15.078125 -3.351562 14.421875 -2.5625 C 13.765625 -1.769531 12.925781 -1.125 11.90625 -0.625 C 10.894531 -0.132812 9.753906 0.109375 8.484375 0.109375 C 6.984375 0.109375 5.640625 -0.21875 4.453125 -0.875 C 3.273438 -1.53125 2.359375 -2.441406 1.703125 -3.609375 C 1.046875 -4.785156 0.71875 -6.128906 0.71875 -7.640625 C 0.71875 -9.140625 1.046875 -10.476562 1.703125 -11.65625 C 2.359375 -12.84375 3.269531 -13.765625 4.4375 -14.421875 C 5.613281 -15.078125 6.957031 -15.40625 8.46875 -15.40625 C 10.289062 -15.40625 11.828125 -14.960938 13.078125 -14.078125 C 14.328125 -13.203125 15.15625 -11.984375 15.5625 -10.421875 Z M 11.453125 -10.421875 "/></g></g></g><g fill="#ffaf02" fill-opacity="1"><g transform="translate(117.006833, 25.263155)"><g><path d="M 14.546875 -15.234375 L 14.546875 0 L 10.828125 0 L 10.828125 -6.265625 L 5.0625 -6.265625 L 5.0625 0 L 1.34375 0 L 1.34375 -15.234375 L 5.0625 -15.234375 L 5.0625 -9.265625 L 10.828125 -9.265625 L 10.828125 -15.234375 Z M 14.546875 -15.234375 "/></g></g></g><g fill="#ffaf02" fill-opacity="1"><g transform="translate(132.874397, 25.263155)"><g><path d="M 12.3125 -15.234375 L 12.3125 -12.265625 L 8.265625 -12.265625 L 8.265625 0 L 4.5625 0 L 4.5625 -12.265625 L 0.515625 -12.265625 L 0.515625 -15.234375 Z M 12.3125 -15.234375 "/></g></g></g></svg>