<svg xmlns="http://www.w3.org/2000/svg" xmlns:xlink="http://www.w3.org/1999/xlink" width="200" zoomAndPan="magnify" viewBox="0 0 150 37.5" height="50" preserveAspectRatio="xMidYMid meet" version="1.0"><defs><g/></defs><g fill="#ffaf02" fill-opacity="1"><g transform="translate(4.051449, 25.904605)"><g><path d="M 23.328125 -15.921875 L 19.171875 0 L 14.46875 0 L 11.9375 -10.484375 L 9.296875 0 L 4.609375 0 L 0.5625 -15.921875 L 4.71875 -15.921875 L 7.015625 -4.328125 L 9.84375 -15.921875 L 14.109375 -15.921875 L 16.828125 -4.328125 L 19.140625 -15.921875 Z M 23.328125 -15.921875 "/></g></g></g><g fill="#ffaf02" fill-opacity="1"><g transform="translate(27.921042, 25.904605)"><g><path d="M 13.34375 -6.53125 C 13.34375 -6.164062 13.316406 -5.789062 13.265625 -5.40625 L 4.484375 -5.40625 C 4.546875 -4.613281 4.800781 -4.007812 5.25 -3.59375 C 5.695312 -3.175781 6.242188 -2.96875 6.890625 -2.96875 C 7.859375 -2.96875 8.535156 -3.378906 8.921875 -4.203125 L 13.046875 -4.203125 C 12.835938 -3.367188 12.457031 -2.617188 11.90625 -1.953125 C 11.351562 -1.285156 10.660156 -0.757812 9.828125 -0.375 C 8.992188 0 8.0625 0.1875 7.03125 0.1875 C 5.789062 0.1875 4.6875 -0.078125 3.71875 -0.609375 C 2.75 -1.140625 1.992188 -1.894531 1.453125 -2.875 C 0.910156 -3.863281 0.640625 -5.015625 0.640625 -6.328125 C 0.640625 -7.640625 0.90625 -8.785156 1.4375 -9.765625 C 1.976562 -10.753906 2.734375 -11.515625 3.703125 -12.046875 C 4.671875 -12.578125 5.78125 -12.84375 7.03125 -12.84375 C 8.257812 -12.84375 9.347656 -12.582031 10.296875 -12.0625 C 11.253906 -11.550781 12 -10.816406 12.53125 -9.859375 C 13.070312 -8.910156 13.34375 -7.800781 13.34375 -6.53125 Z M 9.375 -7.5625 C 9.375 -8.21875 9.144531 -8.742188 8.6875 -9.140625 C 8.238281 -9.535156 7.671875 -9.734375 6.984375 -9.734375 C 6.335938 -9.734375 5.789062 -9.539062 5.34375 -9.15625 C 4.894531 -8.78125 4.617188 -8.25 4.515625 -7.5625 Z M 9.375 -7.5625 "/></g></g></g><g fill="#ffaf02" fill-opacity="1"><g transform="translate(41.897914, 25.904605)"><g><path d="M 5.28125 -10.875 C 5.644531 -11.457031 6.164062 -11.929688 6.84375 -12.296875 C 7.53125 -12.660156 8.3125 -12.84375 9.1875 -12.84375 C 10.226562 -12.84375 11.171875 -12.578125 12.015625 -12.046875 C 12.867188 -11.515625 13.539062 -10.753906 14.03125 -9.765625 C 14.519531 -8.785156 14.765625 -7.648438 14.765625 -6.359375 C 14.765625 -5.054688 14.519531 -3.90625 14.03125 -2.90625 C 13.539062 -1.914062 12.867188 -1.148438 12.015625 -0.609375 C 11.171875 -0.078125 10.226562 0.1875 9.1875 0.1875 C 8.289062 0.1875 7.507812 0.0078125 6.84375 -0.34375 C 6.1875 -0.707031 5.664062 -1.179688 5.28125 -1.765625 L 5.28125 0 L 1.40625 0 L 1.40625 -16.78125 L 5.28125 -16.78125 Z M 10.828125 -6.359375 C 10.828125 -7.316406 10.554688 -8.070312 10.015625 -8.625 C 9.484375 -9.175781 8.820312 -9.453125 8.03125 -9.453125 C 7.257812 -9.453125 6.601562 -9.171875 6.0625 -8.609375 C 5.53125 -8.054688 5.265625 -7.296875 5.265625 -6.328125 C 5.265625 -5.359375 5.53125 -4.59375 6.0625 -4.03125 C 6.601562 -3.476562 7.257812 -3.203125 8.03125 -3.203125 C 8.800781 -3.203125 9.457031 -3.484375 10 -4.046875 C 10.550781 -4.617188 10.828125 -5.390625 10.828125 -6.359375 Z M 10.828125 -6.359375 "/></g></g></g><g fill="#ffaf02" fill-opacity="1"><g transform="translate(57.30424, 25.904605)"><g><path d="M 0.640625 -6.359375 C 0.640625 -7.648438 0.882812 -8.785156 1.375 -9.765625 C 1.863281 -10.753906 2.53125 -11.515625 3.375 -12.046875 C 4.226562 -12.578125 5.175781 -12.84375 6.21875 -12.84375 C 7.050781 -12.84375 7.8125 -12.664062 8.5 -12.3125 C 9.1875 -11.96875 9.726562 -11.5 10.125 -10.90625 L 10.125 -16.78125 L 14 -16.78125 L 14 0 L 10.125 0 L 10.125 -1.8125 C 9.757812 -1.207031 9.238281 -0.722656 8.5625 -0.359375 C 7.894531 0.00390625 7.113281 0.1875 6.21875 0.1875 C 5.175781 0.1875 4.226562 -0.078125 3.375 -0.609375 C 2.53125 -1.148438 1.863281 -1.914062 1.375 -2.90625 C 0.882812 -3.90625 0.640625 -5.054688 0.640625 -6.359375 Z M 10.125 -6.328125 C 10.125 -7.296875 9.851562 -8.054688 9.3125 -8.609375 C 8.769531 -9.171875 8.113281 -9.453125 7.34375 -9.453125 C 6.570312 -9.453125 5.914062 -9.175781 5.375 -8.625 C 4.84375 -8.070312 4.578125 -7.316406 4.578125 -6.359375 C 4.578125 -5.390625 4.84375 -4.617188 5.375 -4.046875 C 5.914062 -3.484375 6.570312 -3.203125 7.34375 -3.203125 C 8.113281 -3.203125 8.769531 -3.476562 9.3125 -4.03125 C 9.851562 -4.59375 10.125 -5.359375 10.125 -6.328125 Z M 10.125 -6.328125 "/></g></g></g><g fill="#ffaf02" fill-opacity="1"><g transform="translate(72.710566, 25.904605)"><g><path d="M 13.34375 -6.53125 C 13.34375 -6.164062 13.316406 -5.789062 13.265625 -5.40625 L 4.484375 -5.40625 C 4.546875 -4.613281 4.800781 -4.007812 5.25 -3.59375 C 5.695312 -3.175781 6.242188 -2.96875 6.890625 -2.96875 C 7.859375 -2.96875 8.535156 -3.378906 8.921875 -4.203125 L 13.046875 -4.203125 C 12.835938 -3.367188 12.457031 -2.617188 11.90625 -1.953125 C 11.351562 -1.285156 10.660156 -0.757812 9.828125 -0.375 C 8.992188 0 8.0625 0.1875 7.03125 0.1875 C 5.789062 0.1875 4.6875 -0.078125 3.71875 -0.609375 C 2.75 -1.140625 1.992188 -1.894531 1.453125 -2.875 C 0.910156 -3.863281 0.640625 -5.015625 0.640625 -6.328125 C 0.640625 -7.640625 0.90625 -8.785156 1.4375 -9.765625 C 1.976562 -10.753906 2.734375 -11.515625 3.703125 -12.046875 C 4.671875 -12.578125 5.78125 -12.84375 7.03125 -12.84375 C 8.257812 -12.84375 9.347656 -12.582031 10.296875 -12.0625 C 11.253906 -11.550781 12 -10.816406 12.53125 -9.859375 C 13.070312 -8.910156 13.34375 -7.800781 13.34375 -6.53125 Z M 9.375 -7.5625 C 9.375 -8.21875 9.144531 -8.742188 8.6875 -9.140625 C 8.238281 -9.535156 7.671875 -9.734375 6.984375 -9.734375 C 6.335938 -9.734375 5.789062 -9.539062 5.34375 -9.15625 C 4.894531 -8.78125 4.617188 -8.25 4.515625 -7.5625 Z M 9.375 -7.5625 "/></g></g></g><g fill="#ffaf02" fill-opacity="1"><g transform="translate(86.687438, 25.904605)"><g><path d="M 6.5625 0.1875 C 5.457031 0.1875 4.472656 0 3.609375 -0.375 C 2.742188 -0.757812 2.0625 -1.28125 1.5625 -1.9375 C 1.0625 -2.59375 0.78125 -3.332031 0.71875 -4.15625 L 4.5625 -4.15625 C 4.601562 -3.71875 4.804688 -3.359375 5.171875 -3.078125 C 5.535156 -2.804688 5.984375 -2.671875 6.515625 -2.671875 C 6.992188 -2.671875 7.363281 -2.765625 7.625 -2.953125 C 7.894531 -3.148438 8.03125 -3.398438 8.03125 -3.703125 C 8.03125 -4.066406 7.835938 -4.332031 7.453125 -4.5 C 7.078125 -4.675781 6.46875 -4.867188 5.625 -5.078125 C 4.71875 -5.296875 3.960938 -5.519531 3.359375 -5.75 C 2.753906 -5.988281 2.234375 -6.359375 1.796875 -6.859375 C 1.359375 -7.367188 1.140625 -8.054688 1.140625 -8.921875 C 1.140625 -9.640625 1.335938 -10.296875 1.734375 -10.890625 C 2.140625 -11.492188 2.726562 -11.96875 3.5 -12.3125 C 4.28125 -12.664062 5.207031 -12.84375 6.28125 -12.84375 C 7.875 -12.84375 9.125 -12.445312 10.03125 -11.65625 C 10.945312 -10.875 11.472656 -9.832031 11.609375 -8.53125 L 8.03125 -8.53125 C 7.96875 -8.96875 7.773438 -9.3125 7.453125 -9.5625 C 7.128906 -9.820312 6.703125 -9.953125 6.171875 -9.953125 C 5.710938 -9.953125 5.363281 -9.863281 5.125 -9.6875 C 4.882812 -9.519531 4.765625 -9.285156 4.765625 -8.984375 C 4.765625 -8.617188 4.957031 -8.34375 5.34375 -8.15625 C 5.726562 -7.976562 6.328125 -7.800781 7.140625 -7.625 C 8.078125 -7.382812 8.84375 -7.144531 9.4375 -6.90625 C 10.03125 -6.675781 10.546875 -6.296875 10.984375 -5.765625 C 11.429688 -5.242188 11.664062 -4.546875 11.6875 -3.671875 C 11.6875 -2.929688 11.476562 -2.269531 11.0625 -1.6875 C 10.644531 -1.101562 10.046875 -0.644531 9.265625 -0.3125 C 8.484375 0.0195312 7.582031 0.1875 6.5625 0.1875 Z M 6.5625 0.1875 "/></g></g></g><g fill="#ffaf02" fill-opacity="1"><g transform="translate(99.3483, 25.904605)"><g><path d="M 3.359375 -13.96875 C 2.679688 -13.96875 2.125 -14.164062 1.6875 -14.5625 C 1.257812 -14.96875 1.046875 -15.46875 1.046875 -16.0625 C 1.046875 -16.664062 1.257812 -17.164062 1.6875 -17.5625 C 2.125 -17.96875 2.679688 -18.171875 3.359375 -18.171875 C 4.023438 -18.171875 4.570312 -17.96875 5 -17.5625 C 5.4375 -17.164062 5.65625 -16.664062 5.65625 -16.0625 C 5.65625 -15.46875 5.4375 -14.96875 5 -14.5625 C 4.570312 -14.164062 4.023438 -13.96875 3.359375 -13.96875 Z M 5.28125 -12.65625 L 5.28125 0 L 1.40625 0 L 1.40625 -12.65625 Z M 5.28125 -12.65625 "/></g></g></g><g fill="#ffaf02" fill-opacity="1"><g transform="translate(106.041772, 25.904605)"><g><path d="M 6.21875 -12.84375 C 7.113281 -12.84375 7.894531 -12.660156 8.5625 -12.296875 C 9.238281 -11.929688 9.757812 -11.457031 10.125 -10.875 L 10.125 -12.65625 L 14 -12.65625 L 14 -0.015625 C 14 1.140625 13.765625 2.191406 13.296875 3.140625 C 12.835938 4.085938 12.132812 4.835938 11.1875 5.390625 C 10.25 5.953125 9.078125 6.234375 7.671875 6.234375 C 5.796875 6.234375 4.273438 5.789062 3.109375 4.90625 C 1.941406 4.019531 1.273438 2.820312 1.109375 1.3125 L 4.953125 1.3125 C 5.066406 1.800781 5.347656 2.179688 5.796875 2.453125 C 6.253906 2.734375 6.816406 2.875 7.484375 2.875 C 8.285156 2.875 8.925781 2.644531 9.40625 2.1875 C 9.882812 1.726562 10.125 0.992188 10.125 -0.015625 L 10.125 -1.8125 C 9.738281 -1.226562 9.210938 -0.75 8.546875 -0.375 C 7.890625 0 7.113281 0.1875 6.21875 0.1875 C 5.175781 0.1875 4.226562 -0.078125 3.375 -0.609375 C 2.53125 -1.148438 1.863281 -1.914062 1.375 -2.90625 C 0.882812 -3.90625 0.640625 -5.054688 0.640625 -6.359375 C 0.640625 -7.648438 0.882812 -8.785156 1.375 -9.765625 C 1.863281 -10.753906 2.53125 -11.515625 3.375 -12.046875 C 4.226562 -12.578125 5.175781 -12.84375 6.21875 -12.84375 Z M 10.125 -6.328125 C 10.125 -7.296875 9.851562 -8.054688 9.3125 -8.609375 C 8.769531 -9.171875 8.113281 -9.453125 7.34375 -9.453125 C 6.570312 -9.453125 5.914062 -9.175781 5.375 -8.625 C 4.84375 -8.070312 4.578125 -7.316406 4.578125 -6.359375 C 4.578125 -5.390625 4.84375 -4.617188 5.375 -4.046875 C 5.914062 -3.484375 6.570312 -3.203125 7.34375 -3.203125 C 8.113281 -3.203125 8.769531 -3.476562 9.3125 -4.03125 C 9.851562 -4.59375 10.125 -5.359375 10.125 -6.328125 Z M 10.125 -6.328125 "/></g></g></g><g fill="#ffaf02" fill-opacity="1"><g transform="translate(121.448098, 25.904605)"><g><path d="M 9.1875 -12.796875 C 10.632812 -12.796875 11.796875 -12.316406 12.671875 -11.359375 C 13.554688 -10.398438 14 -9.078125 14 -7.390625 L 14 0 L 10.140625 0 L 10.140625 -6.875 C 10.140625 -7.71875 9.921875 -8.375 9.484375 -8.84375 C 9.046875 -9.3125 8.457031 -9.546875 7.71875 -9.546875 C 6.976562 -9.546875 6.382812 -9.3125 5.9375 -8.84375 C 5.5 -8.375 5.28125 -7.71875 5.28125 -6.875 L 5.28125 0 L 1.40625 0 L 1.40625 -16.78125 L 5.28125 -16.78125 L 5.28125 -10.953125 C 5.675781 -11.515625 6.210938 -11.960938 6.890625 -12.296875 C 7.578125 -12.628906 8.34375 -12.796875 9.1875 -12.796875 Z M 9.1875 -12.796875 "/></g></g></g><g fill="#ffaf02" fill-opacity="1"><g transform="translate(136.740969, 25.904605)"><g><path d="M 8.46875 -3.296875 L 8.46875 0 L 6.484375 0 C 5.078125 0 3.976562 -0.34375 3.1875 -1.03125 C 2.40625 -1.71875 2.015625 -2.84375 2.015625 -4.40625 L 2.015625 -9.4375 L 0.46875 -9.4375 L 0.46875 -12.65625 L 2.015625 -12.65625 L 2.015625 -15.75 L 5.90625 -15.75 L 5.90625 -12.65625 L 8.4375 -12.65625 L 8.4375 -9.4375 L 5.90625 -9.4375 L 5.90625 -4.359375 C 5.90625 -3.972656 5.992188 -3.695312 6.171875 -3.53125 C 6.347656 -3.375 6.648438 -3.296875 7.078125 -3.296875 Z M 8.46875 -3.296875 "/></g></g></g></svg>