<svg xmlns="http://www.w3.org/2000/svg" xmlns:xlink="http://www.w3.org/1999/xlink" width="200" zoomAndPan="magnify" viewBox="0 0 150 30.000001" height="40" preserveAspectRatio="xMidYMid meet" version="1.0"><defs><g/></defs><g fill="#ffaf02" fill-opacity="1"><g transform="translate(6.73693, 21.400338)"><g><path d="M 16.835938 -14.105469 L 11.792969 -1.695312 L 9.742188 -6.695312 C 9.484375 -7.3125 8.746094 -7.273438 8.488281 -6.695312 L 6.457031 -1.695312 L 1.394531 -14.105469 C 1.273438 -14.445312 0.875 -14.605469 0.539062 -14.464844 C 0.21875 -14.324219 0.0390625 -13.945312 0.160156 -13.609375 L 5.835938 0.277344 C 6.058594 0.855469 6.832031 0.855469 7.054688 0.300781 L 9.105469 -4.742188 L 11.15625 0.300781 C 11.394531 0.835938 12.152344 0.855469 12.390625 0.300781 L 18.050781 -13.609375 C 18.210938 -13.945312 18.03125 -14.324219 17.710938 -14.464844 C 17.375 -14.605469 16.976562 -14.445312 16.835938 -14.105469 Z M 3.167969 -13.609375 L 5.835938 -7.074219 C 5.976562 -6.714844 6.375 -6.574219 6.714844 -6.695312 C 6.875 -6.753906 6.992188 -6.914062 7.054688 -7.074219 L 9.105469 -12.09375 L 11.15625 -7.074219 C 11.316406 -6.714844 11.695312 -6.574219 12.035156 -6.695312 C 12.214844 -6.753906 12.332031 -6.914062 12.390625 -7.074219 L 15.0625 -13.609375 C 15.203125 -13.945312 15.023438 -14.324219 14.703125 -14.464844 C 14.363281 -14.605469 13.964844 -14.445312 13.847656 -14.105469 L 11.792969 -9.066406 L 9.742188 -14.105469 C 9.664062 -14.246094 9.542969 -14.40625 9.363281 -14.464844 C 9.023438 -14.605469 8.625 -14.445312 8.507812 -14.105469 L 6.457031 -9.066406 L 4.402344 -14.105469 C 4.261719 -14.445312 3.886719 -14.605469 3.546875 -14.464844 C 3.207031 -14.324219 3.027344 -13.945312 3.167969 -13.609375 Z M 3.167969 -13.609375 "/></g></g></g><g fill="#ffaf02" fill-opacity="1"><g transform="translate(26.174047, 21.400338)"><g><path d="M 9.144531 -1.136719 L 2.929688 -1.136719 L 2.929688 -13.109375 L 9.144531 -13.109375 C 9.523438 -13.109375 9.820312 -13.410156 9.820312 -13.785156 C 9.820312 -14.144531 9.523438 -14.445312 9.144531 -14.445312 L 2.25 -14.445312 C 1.894531 -14.445312 1.59375 -14.144531 1.59375 -13.785156 L 1.59375 -0.457031 C 1.59375 -0.101562 1.894531 0.199219 2.25 0.199219 L 9.144531 0.199219 C 9.523438 0.199219 9.820312 -0.101562 9.820312 -0.457031 C 9.820312 -0.835938 9.523438 -1.136719 9.144531 -1.136719 Z M 9.144531 -11.773438 L 4.921875 -11.773438 C 4.542969 -11.773438 4.242188 -11.496094 4.242188 -11.117188 L 4.242188 -8.449219 C 4.242188 -8.089844 4.542969 -7.789062 4.921875 -7.789062 L 7.910156 -7.789062 C 8.289062 -7.789062 8.585938 -8.089844 8.585938 -8.449219 C 8.585938 -8.824219 8.289062 -9.125 7.910156 -9.125 L 5.578125 -9.125 L 5.578125 -10.460938 L 9.144531 -10.460938 C 9.523438 -10.460938 9.820312 -10.757812 9.820312 -11.117188 C 9.820312 -11.496094 9.523438 -11.773438 9.144531 -11.773438 Z M 7.910156 -6.457031 L 4.921875 -6.457031 C 4.542969 -6.457031 4.242188 -6.15625 4.242188 -5.796875 L 4.242188 -3.128906 C 4.242188 -2.769531 4.542969 -2.46875 4.921875 -2.46875 L 9.144531 -2.46875 C 9.523438 -2.46875 9.820312 -2.769531 9.820312 -3.128906 C 9.820312 -3.507812 9.523438 -3.804688 9.144531 -3.804688 L 5.578125 -3.804688 L 5.578125 -5.121094 L 7.910156 -5.121094 C 8.289062 -5.121094 8.585938 -5.417969 8.585938 -5.796875 C 8.585938 -6.15625 8.289062 -6.457031 7.910156 -6.457031 Z M 7.910156 -6.457031 "/></g></g></g><g fill="#ffaf02" fill-opacity="1"><g transform="translate(38.262796, 21.400338)"><g><path d="M 2.929688 -0.4375 L 2.929688 -13.148438 L 7.511719 -13.148438 C 9.34375 -13.148438 10.796875 -11.636719 10.796875 -9.800781 C 10.796875 -7.710938 9.203125 -7.472656 9.980469 -6.632812 C 11.734375 -4.839844 10.578125 -1.117188 7.53125 -1.117188 L 4.941406 -1.117188 C 4.0625 -1.117188 4.0625 0.238281 4.941406 0.238281 L 7.53125 0.238281 C 11.257812 0.238281 13.429688 -4.0625 11.316406 -7.132812 C 11.894531 -7.96875 12.132812 -8.90625 12.132812 -9.84375 C 12.132812 -12.351562 10.242188 -14.503906 7.511719 -14.503906 L 2.25 -14.503906 C 1.894531 -14.503906 1.59375 -14.183594 1.59375 -13.828125 L 1.59375 -0.4375 C 1.59375 0.4375 2.929688 0.4375 2.929688 -0.4375 Z M 4.941406 -10.480469 L 7.273438 -10.480469 C 7.691406 -10.480469 7.96875 -10.179688 7.96875 -9.800781 C 7.96875 -8.984375 7.074219 -9.125 6.535156 -9.125 C 5.660156 -9.125 5.660156 -7.789062 6.535156 -7.789062 C 7.351562 -7.789062 8.027344 -7.710938 8.707031 -8.367188 C 9.980469 -9.601562 9.125 -11.816406 7.273438 -11.816406 L 4.941406 -11.816406 C 4.0625 -11.816406 4.0625 -10.480469 4.941406 -10.480469 Z M 7.273438 -2.449219 C 7.851562 -2.449219 8.347656 -2.667969 8.707031 -3.027344 C 9.980469 -4.285156 9.125 -6.457031 7.273438 -6.457031 L 4.941406 -6.457031 C 4.0625 -6.457031 4.0625 -5.140625 4.941406 -5.140625 L 7.273438 -5.140625 C 7.691406 -5.140625 7.96875 -4.859375 7.96875 -4.460938 C 7.96875 -3.148438 5.859375 -4.421875 5.859375 -3.128906 C 5.859375 -2.3125 6.792969 -2.449219 7.273438 -2.449219 Z M 7.273438 -2.449219 "/></g></g></g><g fill="#ffaf02" fill-opacity="1"><g transform="translate(52.542109, 21.400338)"><g><path d="M 2.929688 -0.457031 L 2.929688 -13.109375 L 6.234375 -13.109375 C 9.800781 -13.109375 12.234375 -10.597656 12.234375 -7.132812 C 12.234375 -3.644531 9.800781 -1.136719 6.234375 -1.136719 L 4.902344 -1.136719 C 4.542969 -1.136719 4.242188 -0.835938 4.242188 -0.457031 C 4.242188 -0.101562 4.542969 0.199219 4.902344 0.199219 L 6.234375 0.199219 C 10.558594 0.199219 13.566406 -2.910156 13.566406 -7.132812 C 13.566406 -11.335938 10.558594 -14.445312 6.234375 -14.445312 L 2.25 -14.445312 C 1.894531 -14.445312 1.59375 -14.144531 1.59375 -13.785156 L 1.59375 -0.457031 C 1.59375 -0.101562 1.894531 0.199219 2.25 0.199219 C 2.628906 0.199219 2.929688 -0.101562 2.929688 -0.457031 Z M 4.921875 -2.449219 L 6.234375 -2.449219 C 8.964844 -2.449219 10.777344 -4.503906 10.777344 -7.132812 C 10.777344 -9.742188 8.964844 -11.792969 6.234375 -11.792969 L 4.921875 -11.792969 C 4.5625 -11.792969 4.261719 -11.496094 4.261719 -11.117188 L 4.261719 -5.796875 C 4.261719 -5.417969 4.5625 -5.121094 4.921875 -5.121094 C 5.300781 -5.121094 5.578125 -5.417969 5.578125 -5.796875 L 5.578125 -10.460938 L 6.234375 -10.460938 C 8.207031 -10.460938 9.464844 -9.003906 9.464844 -7.132812 C 9.464844 -5.238281 8.207031 -3.785156 6.234375 -3.785156 L 4.921875 -3.785156 C 4.5625 -3.785156 4.261719 -3.488281 4.261719 -3.128906 C 4.261719 -2.75 4.5625 -2.449219 4.921875 -2.449219 Z M 4.921875 -2.449219 "/></g></g></g><g fill="#ffaf02" fill-opacity="1"><g transform="translate(68.374737, 21.400338)"><g><path d="M 9.144531 -1.136719 L 2.929688 -1.136719 L 2.929688 -13.109375 L 9.144531 -13.109375 C 9.523438 -13.109375 9.820312 -13.410156 9.820312 -13.785156 C 9.820312 -14.144531 9.523438 -14.445312 9.144531 -14.445312 L 2.25 -14.445312 C 1.894531 -14.445312 1.59375 -14.144531 1.59375 -13.785156 L 1.59375 -0.457031 C 1.59375 -0.101562 1.894531 0.199219 2.25 0.199219 L 9.144531 0.199219 C 9.523438 0.199219 9.820312 -0.101562 9.820312 -0.457031 C 9.820312 -0.835938 9.523438 -1.136719 9.144531 -1.136719 Z M 9.144531 -11.773438 L 4.921875 -11.773438 C 4.542969 -11.773438 4.242188 -11.496094 4.242188 -11.117188 L 4.242188 -8.449219 C 4.242188 -8.089844 4.542969 -7.789062 4.921875 -7.789062 L 7.910156 -7.789062 C 8.289062 -7.789062 8.585938 -8.089844 8.585938 -8.449219 C 8.585938 -8.824219 8.289062 -9.125 7.910156 -9.125 L 5.578125 -9.125 L 5.578125 -10.460938 L 9.144531 -10.460938 C 9.523438 -10.460938 9.820312 -10.757812 9.820312 -11.117188 C 9.820312 -11.496094 9.523438 -11.773438 9.144531 -11.773438 Z M 7.910156 -6.457031 L 4.921875 -6.457031 C 4.542969 -6.457031 4.242188 -6.15625 4.242188 -5.796875 L 4.242188 -3.128906 C 4.242188 -2.769531 4.542969 -2.46875 4.921875 -2.46875 L 9.144531 -2.46875 C 9.523438 -2.46875 9.820312 -2.769531 9.820312 -3.128906 C 9.820312 -3.507812 9.523438 -3.804688 9.144531 -3.804688 L 5.578125 -3.804688 L 5.578125 -5.121094 L 7.910156 -5.121094 C 8.289062 -5.121094 8.585938 -5.417969 8.585938 -5.796875 C 8.585938 -6.15625 8.289062 -6.457031 7.910156 -6.457031 Z M 7.910156 -6.457031 "/></g></g></g><g fill="#ffaf02" fill-opacity="1"><g transform="translate(80.463486, 21.400338)"><g><path d="M 2.53125 -6.734375 C 4.382812 -5.121094 6.355469 -5.28125 6.433594 -4.34375 C 6.554688 -3.347656 3.863281 -3.546875 2.332031 -4.660156 C 1.632812 -5.160156 0.855469 -4.085938 1.554688 -3.585938 C 2.867188 -2.628906 4.484375 -2.3125 5.777344 -2.390625 C 6.855469 -2.46875 7.828125 -3.289062 7.769531 -4.402344 C 7.628906 -6.515625 5.160156 -6.175781 3.425781 -7.730469 C 1.992188 -8.964844 2.269531 -11.058594 3.347656 -12.191406 C 4.660156 -13.648438 6.8125 -13.308594 8.605469 -12.671875 C 9.445312 -12.371094 9.882812 -13.648438 9.066406 -13.925781 C 7.671875 -14.40625 6.695312 -14.5625 5.5 -14.503906 C 1.394531 -14.304688 -0.359375 -9.265625 2.53125 -6.734375 Z M 5.378906 -9.464844 C 4.722656 -9.980469 5.238281 -11.21875 8.25 -10 C 9.066406 -9.664062 9.542969 -10.898438 8.765625 -11.21875 C 3.804688 -13.230469 2.96875 -9.703125 4.5625 -8.449219 C 5.578125 -7.628906 9.164062 -7.132812 9.164062 -4.402344 C 9.164062 -0.71875 5 -0.300781 1.933594 -1.933594 C 1.15625 -2.332031 0.539062 -1.15625 1.296875 -0.757812 C 2.070312 -0.339844 2.847656 -0.078125 3.527344 0.0585938 C 7.253906 0.957031 10.480469 -0.757812 10.480469 -4.402344 C 10.480469 -8.109375 6.117188 -8.90625 5.378906 -9.464844 Z M 5.378906 -9.464844 "/></g></g></g><g fill="#ffaf02" fill-opacity="1"><g transform="translate(92.930609, 21.400338)"><g><path d="M 2.929688 -0.457031 L 2.929688 -13.785156 C 2.929688 -14.144531 2.628906 -14.445312 2.269531 -14.445312 C 1.894531 -14.445312 1.59375 -14.144531 1.59375 -13.785156 L 1.59375 -0.457031 C 1.59375 -0.101562 1.894531 0.199219 2.269531 0.199219 C 2.628906 0.199219 2.929688 -0.101562 2.929688 -0.457031 Z M 5.597656 -0.457031 L 5.597656 -13.785156 C 5.597656 -14.144531 5.300781 -14.445312 4.941406 -14.445312 C 4.5625 -14.445312 4.261719 -14.144531 4.261719 -13.785156 L 4.261719 -0.457031 C 4.261719 -0.101562 4.5625 0.199219 4.941406 0.199219 C 5.300781 0.199219 5.597656 -0.101562 5.597656 -0.457031 Z M 5.597656 -0.457031 "/></g></g></g><g fill="#ffaf02" fill-opacity="1"><g transform="translate(101.335217, 21.400338)"><g><path d="M 12.570312 -1.234375 L 12.570312 -7.132812 C 12.570312 -8.007812 11.238281 -8.007812 11.238281 -7.132812 L 11.238281 -1.632812 C 7.390625 0.257812 2.371094 -1.992188 2.292969 -7.011719 C 2.210938 -11.773438 6.632812 -14.382812 11.316406 -12.871094 C 12.253906 -12.550781 12.671875 -13.828125 11.714844 -14.125 C 6.136719 -15.917969 0.855469 -12.671875 0.957031 -6.992188 C 1.054688 -0.9375 7.230469 2.09375 12.214844 -0.65625 C 12.433594 -0.777344 12.570312 -0.996094 12.570312 -1.234375 Z M 11.515625 -11.375 C 10.621094 -11.753906 9.601562 -11.933594 8.425781 -11.894531 C 2.113281 -11.675781 2.390625 -2.371094 8.449219 -2.371094 C 8.945312 -2.371094 9.863281 -2.390625 9.863281 -3.109375 L 9.863281 -7.132812 C 9.863281 -8.007812 8.507812 -8.007812 8.507812 -7.132812 L 8.507812 -3.726562 C 4.0625 -3.6875 3.925781 -10.398438 8.46875 -10.578125 C 9.421875 -10.597656 10.261719 -10.460938 10.976562 -10.140625 C 11.773438 -9.800781 12.3125 -10.996094 11.515625 -11.375 Z M 11.515625 -11.375 "/></g></g></g><g fill="#ffaf02" fill-opacity="1"><g transform="translate(116.630168, 21.400338)"><g><path d="M 2.929688 -0.457031 L 2.929688 -13.785156 C 2.929688 -14.144531 2.628906 -14.445312 2.269531 -14.445312 C 1.894531 -14.445312 1.59375 -14.144531 1.59375 -13.785156 L 1.59375 -0.457031 C 1.59375 -0.101562 1.894531 0.199219 2.269531 0.199219 C 2.628906 0.199219 2.929688 -0.101562 2.929688 -0.457031 Z M 4.261719 -13.785156 L 4.261719 -8.449219 C 4.261719 -8.089844 4.5625 -7.789062 4.921875 -7.789062 L 8.925781 -7.789062 C 9.285156 -7.789062 9.582031 -8.089844 9.582031 -8.449219 L 9.582031 -13.785156 C 9.582031 -14.144531 9.285156 -14.445312 8.925781 -14.445312 C 8.546875 -14.445312 8.25 -14.144531 8.25 -13.785156 L 8.25 -9.125 L 5.597656 -9.125 L 5.597656 -13.785156 C 5.597656 -14.144531 5.300781 -14.445312 4.921875 -14.445312 C 4.5625 -14.445312 4.261719 -14.144531 4.261719 -13.785156 Z M 10.917969 -13.785156 L 10.917969 -0.457031 C 10.917969 -0.101562 11.21875 0.199219 11.574219 0.199219 C 11.953125 0.199219 12.253906 -0.101562 12.253906 -0.457031 L 12.253906 -13.785156 C 12.253906 -14.144531 11.953125 -14.445312 11.574219 -14.445312 C 11.21875 -14.445312 10.917969 -14.144531 10.917969 -13.785156 Z M 9.582031 -0.457031 L 9.582031 -5.796875 C 9.582031 -6.15625 9.285156 -6.457031 8.925781 -6.457031 L 4.921875 -6.457031 C 4.5625 -6.457031 4.261719 -6.15625 4.261719 -5.796875 L 4.261719 -0.457031 C 4.261719 -0.101562 4.5625 0.199219 4.921875 0.199219 C 5.300781 0.199219 5.597656 -0.101562 5.597656 -0.457031 L 5.597656 -5.121094 L 8.25 -5.121094 L 8.25 -0.457031 C 8.25 -0.101562 8.546875 0.199219 8.925781 0.199219 C 9.285156 0.199219 9.582031 -0.101562 9.582031 -0.457031 Z M 9.582031 -0.457031 "/></g></g></g><g fill="#ffaf02" fill-opacity="1"><g transform="translate(131.686144, 21.400338)"><g><path d="M 1.074219 -13.109375 L 10.378906 -13.109375 C 10.738281 -13.109375 11.019531 -13.410156 11.019531 -13.765625 C 11.019531 -14.144531 10.738281 -14.425781 10.378906 -14.425781 L 1.074219 -14.425781 C 0.699219 -14.425781 0.398438 -14.144531 0.398438 -13.765625 C 0.398438 -13.410156 0.699219 -13.109375 1.074219 -13.109375 Z M 1.074219 -10.460938 L 3.707031 -10.460938 L 3.707031 -0.476562 C 3.707031 -0.101562 4.023438 0.199219 4.382812 0.199219 C 4.761719 0.199219 5.058594 -0.101562 5.058594 -0.476562 L 5.058594 -11.097656 C 5.058594 -11.476562 4.761719 -11.773438 4.382812 -11.773438 L 1.074219 -11.773438 C 0.699219 -11.773438 0.398438 -11.476562 0.398438 -11.097656 C 0.398438 -10.738281 0.699219 -10.460938 1.074219 -10.460938 Z M 10.378906 -11.773438 L 7.03125 -11.773438 C 6.675781 -11.773438 6.375 -11.476562 6.375 -11.097656 L 6.375 -0.476562 C 6.375 -0.101562 6.675781 0.199219 7.03125 0.199219 C 7.410156 0.199219 7.710938 -0.101562 7.710938 -0.476562 L 7.710938 -10.460938 L 10.378906 -10.460938 C 10.738281 -10.460938 11.019531 -10.738281 11.019531 -11.097656 C 11.019531 -11.476562 10.738281 -11.773438 10.378906 -11.773438 Z M 10.378906 -11.773438 "/></g></g></g></svg>